<svg xmlns="http://www.w3.org/2000/svg" viewBox="0 0 200 200" role="img" aria-labelledby="title desc">
  <title id="title">Arctic Fox</title>
  <desc id="desc">A white arctic fox curled against a cool blue backdrop.</desc>
  <defs>
    <linearGradient id="bg" x1="0%" x2="100%" y1="0%" y2="100%">
      <stop offset="0%" stop-color="#eff8ff"/>
      <stop offset="100%" stop-color="#d8ecff"/>
    </linearGradient>
  </defs>
  <rect width="200" height="200" rx="44" fill="url(#bg)"/>
  <circle cx="100" cy="100" r="78" fill="#ffffff" opacity=".6"/>
  <path d="M52 132c0-30 22-54 50-54 11 0 22 4 31 11 17 13 31 39 31 59 0 17-11 28-28 28H91c-23 0-39-17-39-44Z" fill="#fdfefe"/>
  <path d="M70 84 92 55l10 31Z" fill="#f8fbff"/>
  <path d="M115 58 145 80l-31 8Z" fill="#f8fbff"/>
  <path d="M78 86 92 67l6 20Z" fill="#d9e2ef"/>
  <path d="M119 67 138 80l-20 5Z" fill="#d9e2ef"/>
  <path d="M71 142c7-31 30-56 64-66 20 4 35 22 35 45 0 25-17 42-41 42H84c-8 0-13-8-13-21Z" fill="#f7fafc"/>
  <path d="M97 136c18-12 47-13 66 6-7 19-26 31-47 31-16 0-27-7-34-20 0-7 6-13 15-17Z" fill="#eef4f8"/>
  <path d="M49 137c0-11 7-19 18-19 21 0 38 24 52 40-6 11-18 18-32 18-22 0-38-17-38-39Z" fill="#ffffff"/>
  <path d="M128 117c15 4 28 15 36 31-10 13-25 22-42 24-10-13-18-24-24-34 7-13 18-22 30-21Z" fill="#ffffff"/>
  <ellipse cx="102" cy="94" rx="24" ry="21" fill="#fff"/>
  <circle cx="93" cy="91" r="4.2" fill="#203040"/>
  <circle cx="112" cy="91" r="4.2" fill="#203040"/>
  <circle cx="91.5" cy="89.5" r="1.2" fill="#fff"/>
  <circle cx="110.5" cy="89.5" r="1.2" fill="#fff"/>
  <path d="M102 95c5 0 10 3 10 8 0 7-6 11-10 12-4-1-10-5-10-12 0-5 5-8 10-8Z" fill="#2f435a"/>
  <path d="M95 114c3 4 8 6 14 6 6 0 11-2 14-6" fill="none" stroke="#51697d" stroke-linecap="round" stroke-width="4"/>
  <path d="M74 139c12 3 24 13 32 27" fill="none" stroke="#cfdce8" stroke-linecap="round" stroke-width="10"/>
  <path d="M90 139c10 5 20 15 28 29" fill="none" stroke="#dbe7f1" stroke-linecap="round" stroke-width="8"/>
</svg>
